<svg width="60" height="60" viewBox="0 0 60 60" fill="none" xmlns="http://www.w3.org/2000/svg">
<circle cx="30" cy="30" r="30" fill="#121212" fill-opacity="0.1"/>
<g clip-path="url(#clip0_13_3333)">
<path d="M42 29.3566C42 26.2538 40.7918 23.3368 38.5979 21.143C38.4608 21.0059 38.2385 21.0059 38.1014 21.143L25.8487 33.3956C24.9376 32.9146 24.105 33.0541 23.1498 33.2213C22.7164 31.6573 21.6295 31.0516 21.5722 31.0207C21.4015 30.9287 21.1886 30.9927 21.0967 31.1634C21.0047 31.3341 21.0686 31.547 21.2393 31.6389C21.2495 31.6443 21.9863 32.0557 22.3809 33.127C21.2461 32.8454 20.0368 33.2346 19.2275 34.0638C18.1158 30.0097 19.4526 23.9275 24.6287 23.9347C26.9313 23.9347 28.9641 25.45 29.7234 27.6018C29.7878 27.7846 29.9884 27.8806 30.1711 27.8161C30.354 27.7517 30.4499 27.5512 30.3855 27.3684C29.941 26.1062 29.1304 25.0162 28.0165 24.2667C28.1163 23.7459 28.3293 23.2487 28.6392 22.8175L29.102 22.1735C29.5465 21.5549 28.8597 20.6956 28.1524 21.018L27.0501 21.5212C27.026 20.5789 27.2655 19.8548 27.8368 19.105C28.0105 18.8632 28.0002 18.5462 27.8112 18.3163C27.6222 18.0862 27.3132 18.0149 27.0424 18.1383C26.0607 18.5864 25.1139 18.9842 24.5875 20.0064C24.0652 18.9919 23.1093 18.5841 22.1326 18.1383C21.8619 18.0147 21.5528 18.0863 21.3638 18.3162C21.1748 18.5462 21.1645 18.8632 21.3382 19.105C21.9067 19.8555 22.1513 20.5771 22.125 21.5212L21.0225 21.018C20.3297 20.7019 19.6195 21.5422 20.073 22.1735L20.5358 22.8175C20.85 23.2546 21.0643 23.7591 21.1623 24.2876C17.9443 26.4765 17.5966 31.3482 18.7001 34.7489C17.8159 36.2105 17.7757 38.422 18.5429 39.9352C18.6306 40.1081 18.8419 40.1772 19.0148 40.0895C19.1877 40.0019 19.2568 39.7906 19.1691 39.6177C18.321 37.9447 18.5748 35.1063 20.327 34.0865C21.0939 33.6402 21.7662 33.7424 22.5759 33.9044C22.6066 34.1136 22.6246 34.3388 22.6246 34.5826C22.6246 34.7765 22.7817 34.9337 22.9756 34.9337C23.1696 34.9337 23.3267 34.7765 23.3267 34.5826C23.3267 34.3445 23.3122 34.1205 23.2862 33.9098C24.1135 33.7576 24.81 33.6079 25.5998 34.0589C27.8219 35.3278 27.8258 39.6451 25.5917 40.8914C24.9775 41.2341 24.1915 41.3265 23.5253 41.0796C23.146 40.9578 22.7449 40.9578 22.3656 41.0796C21.623 41.3184 20.8468 41.2074 20.1803 40.7673C20.0186 40.6604 19.8008 40.7049 19.694 40.8667C19.5871 41.0285 19.6316 41.2462 19.7934 41.3531C20.6288 41.9048 21.6446 42.0488 22.5804 41.748C22.8192 41.6712 23.0716 41.6712 23.3105 41.748C24.1782 42.0418 25.1335 41.9511 25.9338 41.5046C26.208 41.3516 26.4601 41.1607 26.6851 40.9388C27.5006 41.5743 28.5033 41.9217 29.5455 41.9217C30.7255 41.9217 31.8041 41.4805 32.6258 40.7547C34.8933 40.311 36.9565 39.2116 38.5979 37.5703C40.7918 35.3763 42 32.4594 42 29.3566ZM21.106 22.4078L20.6432 21.7638C20.6176 21.683 20.6469 21.6474 20.731 21.6568C21.2561 21.8965 21.801 22.1129 22.3098 22.3863C22.4186 22.4449 22.5501 22.4419 22.6561 22.3785C22.7621 22.3151 22.827 22.2007 22.827 22.0771C22.827 20.8726 22.7943 19.8799 22.0287 18.8627C23.169 19.3832 24.2364 20.0091 24.2364 21.4516C24.2364 21.6455 24.3935 21.8027 24.5875 21.8027C24.7814 21.8027 24.9385 21.6455 24.9385 21.4516C24.9385 20.0166 26.006 19.3832 27.1462 18.8627C26.3807 19.8799 26.348 20.8726 26.348 22.0771C26.348 22.2007 26.4129 22.3151 26.5189 22.3785C26.625 22.4418 26.7565 22.4448 26.8653 22.3863C27.374 22.1127 27.9187 21.8965 28.4439 21.6568C28.528 21.6473 28.5573 21.683 28.5318 21.7637L28.069 22.4078C27.7482 22.8543 27.5147 23.3603 27.3809 23.8924C26.5317 23.4595 25.5945 23.2326 24.6287 23.2326C23.6472 23.2247 22.6705 23.4592 21.7983 23.9092C21.6652 23.3709 21.4304 22.8591 21.106 22.4078ZM27.1352 40.3997C28.2889 38.7285 28.2356 35.8821 26.9358 34.2912C27.6575 33.655 28.5721 33.3072 29.5456 33.3072C31.7269 33.3072 33.5017 35.0819 33.5017 37.2634C33.5017 39.4447 31.727 41.2195 29.5456 41.2195C28.6685 41.2195 27.8243 40.93 27.1352 40.3997ZM33.4239 39.8405C33.7085 39.4137 33.9247 38.9377 34.0564 38.4279C35.2737 37.9362 36.3654 37.213 37.3031 36.2753C38.6742 34.9041 39.5993 33.1785 39.9781 31.2849C40.0161 31.0948 39.8929 30.9098 39.7027 30.8718C39.5125 30.8336 39.3277 30.957 39.2896 31.1471C38.938 32.9044 38.0795 34.506 36.8066 35.7789C36.0395 36.5459 35.1616 37.158 34.1912 37.605C34.3848 34.9461 32.213 32.6051 29.5456 32.6051C28.408 32.6051 27.3382 33.0076 26.4915 33.7459L37.0502 23.1872C38.6367 24.8978 39.4923 27.111 39.4663 29.4578C39.4641 29.6517 39.6196 29.8106 39.8134 29.8128C40.007 29.8146 40.1662 29.6595 40.1684 29.4656C40.1964 26.9283 39.2675 24.5365 37.5464 22.6909L38.3458 21.8915C40.2523 23.9215 41.2979 26.5586 41.2979 29.3566C41.2979 32.2718 40.1627 35.0124 38.1014 37.0737C36.7876 38.3875 35.1863 39.3319 33.4239 39.8405Z" fill="black"/>
<path d="M34.8044 33.2802C34.6672 33.1432 34.445 33.1432 34.3079 33.2802C34.1708 33.4174 34.1708 33.6396 34.3079 33.7767L34.838 34.3068C34.9066 34.3753 34.9965 34.4096 35.0863 34.4096C35.1761 34.4096 35.266 34.3753 35.3346 34.3068C35.4717 34.1697 35.4717 33.9474 35.3346 33.8103L34.8044 33.2802Z" fill="black"/>
<path d="M36.7008 31.5696L36.0174 31.2651C35.8403 31.1861 35.6328 31.2658 35.5539 31.4429C35.475 31.62 35.5546 31.8275 35.7317 31.9064L36.415 32.2109C36.4615 32.2316 36.5099 32.2413 36.5577 32.2413C36.6921 32.2413 36.8203 32.1637 36.8785 32.0331C36.9574 31.856 36.8778 31.6485 36.7008 31.5696Z" fill="black"/>
<path d="M37.1508 28.9713L36.4077 28.9341C36.4017 28.9337 36.3957 28.9336 36.3898 28.9336C36.204 28.9336 36.0489 29.0794 36.0395 29.2671C36.0298 29.4607 36.1789 29.6256 36.3725 29.6352L37.1156 29.6725C37.1216 29.6728 37.1276 29.673 37.1335 29.673C37.3193 29.673 37.4744 29.5272 37.4838 29.3395C37.4935 29.1459 37.3444 28.981 37.1508 28.9713Z" fill="black"/>
<path d="M36.0298 27.291C36.0668 27.291 36.1045 27.2851 36.1414 27.2727L36.8427 27.0376C37.0266 26.9759 37.1256 26.7769 37.064 26.5931C37.0024 26.4093 36.8033 26.3103 36.6196 26.3718L35.9183 26.6069C35.7344 26.6686 35.6354 26.8676 35.697 27.0514C35.7462 27.1982 35.883 27.291 36.0298 27.291Z" fill="black"/>
<path d="M24.5874 28.2231C24.6773 28.2231 24.7671 28.1888 24.8357 28.1203L25.6091 27.3469C25.7463 27.2098 25.7463 26.9875 25.6092 26.8504C25.4721 26.7134 25.2498 26.7133 25.1128 26.8504L24.5874 27.3757L24.0621 26.8504C23.9251 26.7133 23.7028 26.7133 23.5657 26.8504C23.4286 26.9875 23.4286 27.2098 23.5658 27.3469L24.3392 28.1203C24.4078 28.1888 24.4976 28.2231 24.5874 28.2231Z" fill="black"/>
<path d="M27.7535 28.2231C27.8433 28.2231 27.9332 28.1888 28.0017 28.1203L28.7752 27.3469C28.9123 27.2098 28.9123 26.9875 28.7752 26.8504C28.6381 26.7133 28.4158 26.7133 28.2788 26.8504L27.7535 27.3757L27.2282 26.8504C27.0911 26.7133 26.8688 26.7133 26.7317 26.8504C26.5946 26.9875 26.5946 27.2098 26.7318 27.3469L27.5052 28.1203C27.5738 28.1888 27.6636 28.2231 27.7535 28.2231Z" fill="black"/>
<path d="M23.514 29.0672L22.9888 29.5925L22.4636 29.0673C22.3264 28.9302 22.1041 28.9301 21.9671 29.0672C21.83 29.2043 21.83 29.4266 21.9671 29.5637L22.7405 30.3371C22.8064 30.403 22.8956 30.44 22.9888 30.44C23.0819 30.44 23.1711 30.403 23.237 30.3372L24.0105 29.5637C24.1476 29.4266 24.1476 29.2043 24.0105 29.0672C23.8734 28.9302 23.6512 28.9302 23.514 29.0672Z" fill="black"/>
<path d="M25.9065 30.3372C25.9724 30.4031 26.0616 30.44 26.1548 30.44C26.2479 30.44 26.3371 30.4031 26.403 30.3372L27.1765 29.5638C27.3136 29.4266 27.3136 29.2044 27.1765 29.0673C27.0394 28.9302 26.8171 28.9302 26.68 29.0673L26.1548 29.5926L25.6296 29.0673C25.4925 28.9302 25.2702 28.9302 25.1331 29.0673C24.996 29.2044 24.996 29.4267 25.1331 29.5637L25.9065 30.3372Z" fill="black"/>
<path d="M30.3315 35.1448C30.5254 35.1448 30.6826 34.9877 30.6826 34.7938C30.6826 34.5999 30.5254 34.4427 30.3315 34.4427C30.1376 34.4427 29.9805 34.5999 29.9805 34.7938C29.9805 34.9877 30.1376 35.1448 30.3315 35.1448Z" fill="black"/>
</g>
<defs>
<clipPath id="clip0_13_3333">
<rect width="24" height="24" fill="white" transform="translate(18 18)"/>
</clipPath>
</defs>
</svg>
