<svg width="60" height="60" viewBox="0 0 60 60" fill="none" xmlns="http://www.w3.org/2000/svg">
<circle cx="30" cy="30" r="30" fill="#121212" fill-opacity="0.1"/>
<g clip-path="url(#clip0_13_3399)">
<path d="M34.535 31.6629H22.1617L32.8764 24.8504C32.9076 24.8306 32.9345 24.8048 32.9557 24.7746C32.977 24.7443 32.992 24.7102 33 24.6741C33.0081 24.6381 33.0089 24.6008 33.0025 24.5644C32.9961 24.528 32.9826 24.4932 32.9628 24.4621L31.9012 22.7925C31.6591 22.4126 31.2763 22.1443 30.8366 22.0464C30.3969 21.9485 29.9363 22.029 29.5559 22.2703L28.0482 23.2289L28.1676 22.6575C28.2147 22.4509 28.2205 22.237 28.1847 22.0282C28.1489 21.8193 28.0721 21.6196 27.9589 21.4405C27.8456 21.2614 27.6981 21.1064 27.5248 20.9845C27.3515 20.8626 27.1558 20.7761 26.9489 20.7301C26.7421 20.684 26.5282 20.6793 26.3195 20.7162C26.1109 20.7531 25.9115 20.8308 25.733 20.9449C25.5545 21.0591 25.4002 21.2074 25.2792 21.3813C25.1581 21.5552 25.0727 21.7513 25.0276 21.9584L24.2444 25.4765L21.6216 24.8928C21.2305 24.8056 20.8209 24.8676 20.4731 25.0665C20.1253 25.2655 19.8642 25.5871 19.7411 25.9684C19.6179 26.3498 19.6415 26.7633 19.8073 27.1282C19.9731 27.493 20.269 27.7828 20.6373 27.9409L19.0221 28.9679C18.6422 29.21 18.3739 29.5929 18.276 30.0325C18.1781 30.4722 18.2586 30.9328 18.4999 31.3131L19.5614 32.9828C19.5813 33.014 19.607 33.0409 19.6373 33.0621C19.6675 33.0834 19.7016 33.0984 19.7377 33.1064C19.7737 33.1145 19.811 33.1153 19.8474 33.1089C19.8838 33.1026 19.9185 33.0891 19.9497 33.0693L20.9378 32.4411V39.5609C20.9383 40.0113 21.1175 40.4432 21.436 40.7617C21.7546 41.0802 22.1864 41.2593 22.6369 41.2598H33.1174C33.5678 41.2593 33.9996 41.0802 34.3181 40.7617C34.6366 40.4432 34.8158 40.0113 34.8163 39.5609V31.9442C34.8163 31.9072 34.809 31.8707 34.7949 31.8365C34.7807 31.8024 34.76 31.7714 34.7339 31.7453C34.7078 31.7191 34.6768 31.6984 34.6426 31.6843C34.6085 31.6702 34.5719 31.6629 34.535 31.6629ZM29.8578 22.745C30.0392 22.629 30.25 22.5673 30.4653 22.5672C30.5491 22.5672 30.6327 22.5765 30.7145 22.5947C30.8603 22.6268 30.9983 22.6875 31.1206 22.7732C31.2428 22.859 31.3468 22.9681 31.4265 23.0943L32.3372 24.5266L27.9075 27.3431L26.3871 24.9518L29.8578 22.745ZM25.5767 22.0807C25.6374 21.81 25.8032 21.5746 26.0376 21.4261C26.272 21.2777 26.5557 21.2284 26.8264 21.2892C27.097 21.35 27.3325 21.5158 27.4809 21.7501C27.6294 21.9845 27.6786 22.2682 27.6179 22.5389L27.3869 23.6435L24.8713 25.2489L25.5767 22.0807ZM25.9123 25.2537L27.4327 27.6449L24.8659 29.2769L23.3455 26.8857L25.9123 25.2537ZM20.3894 27.024C20.2784 26.8495 20.2217 26.6459 20.2264 26.4391C20.2311 26.2322 20.297 26.0314 20.4158 25.8621C20.5346 25.6927 20.701 25.5624 20.8939 25.4876C21.0867 25.4128 21.2975 25.3969 21.4994 25.4418L23.7721 25.9478L21.2492 27.5293L21.0448 27.4837C20.9106 27.4542 20.7835 27.3984 20.6711 27.3195C20.5586 27.2406 20.4629 27.1402 20.3894 27.024ZM19.8853 32.4437L18.9747 31.0114C18.8133 30.7569 18.7594 30.4489 18.8249 30.1548C18.8904 29.8607 19.0698 29.6046 19.3239 29.4426L22.8708 27.1875L24.3912 29.5788L19.8853 32.4437ZM25.3394 40.6973H22.6369C22.3356 40.697 22.0467 40.5771 21.8337 40.3641C21.6206 40.151 21.5008 39.8622 21.5004 39.5609V32.2254H25.3395L25.3394 40.6973ZM28.9142 40.6973H25.9019V32.2254H28.9142V40.6973ZM34.2537 39.5609C34.2534 39.8622 34.1335 40.151 33.9205 40.3641C33.7075 40.5771 33.4186 40.697 33.1174 40.6973H29.4767V32.2254H34.2537V39.5609Z" fill="black"/>
<path d="M37.6796 29.108L37.8142 28.3235C37.823 28.2718 37.8172 28.2187 37.7975 28.1701C37.7777 28.1215 37.7447 28.0794 37.7023 28.0486C37.6599 28.0177 37.6096 27.9994 37.5573 27.9956C37.505 27.9918 37.4527 28.0027 37.4062 28.0271L36.7018 28.3974L35.9973 28.0271C35.9508 28.0026 35.8985 27.9917 35.8461 27.9955C35.7938 27.9993 35.7435 28.0176 35.7011 28.0485C35.6586 28.0793 35.6256 28.1214 35.6059 28.17C35.5861 28.2186 35.5803 28.2718 35.5892 28.3235L35.7237 29.108L35.1538 29.6635C35.1162 29.7001 35.0896 29.7465 35.0771 29.7975C35.0645 29.8484 35.0664 29.9019 35.0826 29.9518C35.0988 30.0017 35.1287 30.0461 35.1688 30.0799C35.2089 30.1138 35.2577 30.1357 35.3097 30.1432L36.0972 30.2577L36.4494 30.9714C36.4726 31.0185 36.5085 31.0581 36.5531 31.0858C36.5977 31.1135 36.6491 31.1282 36.7016 31.1282C36.7541 31.1282 36.8056 31.1135 36.8501 31.0858C36.8947 31.0581 36.9306 31.0185 36.9539 30.9714L37.306 30.2577L38.0935 30.1432C38.1455 30.1357 38.1943 30.1138 38.2344 30.0799C38.2745 30.0461 38.3044 30.0017 38.3206 29.9518C38.3368 29.9019 38.3387 29.8484 38.3262 29.7975C38.3136 29.7465 38.287 29.7001 38.2494 29.6635L37.6796 29.108ZM37.0788 29.7221C37.0337 29.7286 36.9908 29.746 36.954 29.7728C36.9171 29.7996 36.8872 29.835 36.8671 29.8759L36.7016 30.2112L36.5362 29.8759C36.516 29.835 36.4862 29.7997 36.4493 29.7729C36.4124 29.7461 36.3695 29.7286 36.3244 29.7221L35.9544 29.6683L36.2221 29.4073C36.2548 29.3755 36.2792 29.3362 36.2933 29.2929C36.3074 29.2495 36.3108 29.2033 36.3031 29.1584L36.2398 28.7899L36.5708 28.9638C36.6111 28.9851 36.656 28.9962 36.7016 28.9962C36.7472 28.9962 36.7922 28.9851 36.8325 28.9638L37.1634 28.7899L37.1002 29.1584C37.0925 29.2033 37.0958 29.2495 37.1099 29.2929C37.124 29.3362 37.1484 29.3755 37.1811 29.4073L37.4488 29.6683L37.0788 29.7221Z" fill="black"/>
<path d="M40.9145 25.2328L40.141 25.0448L39.8574 24.3013C39.8387 24.2522 39.8066 24.2094 39.7649 24.1776C39.7231 24.1458 39.6733 24.1264 39.621 24.1214C39.5688 24.1165 39.5162 24.1263 39.4692 24.1497C39.4222 24.1731 39.3827 24.2092 39.3552 24.2538L38.9375 24.9313L38.1426 24.9713C38.0902 24.9739 38.0396 24.9912 37.9964 25.0211C37.9533 25.051 37.9194 25.0924 37.8986 25.1405C37.8778 25.1887 37.8708 25.2417 37.8786 25.2936C37.8863 25.3455 37.9084 25.3942 37.9424 25.4342L38.4576 26.0408L38.25 26.8091C38.2363 26.8598 38.2371 26.9133 38.2522 26.9635C38.2673 27.0138 38.2962 27.0588 38.3356 27.0935C38.375 27.1282 38.4233 27.1512 38.475 27.1599C38.5268 27.1686 38.5799 27.1626 38.6285 27.1426L39.3644 26.8401L40.0313 27.275C40.0752 27.3036 40.1263 27.3194 40.1788 27.3206C40.2313 27.3217 40.283 27.3082 40.3282 27.2815C40.3733 27.2548 40.4101 27.2159 40.4344 27.1694C40.4586 27.1229 40.4694 27.0705 40.4654 27.0181L40.4052 26.2245L41.0245 25.725C41.0654 25.6921 41.0962 25.6484 41.1135 25.5988C41.1308 25.5493 41.1339 25.4959 41.1224 25.4447C41.111 25.3935 41.0854 25.3465 41.0487 25.3091C41.0119 25.2716 40.9654 25.2452 40.9145 25.2328ZM39.9368 25.8797C39.9013 25.9083 39.8733 25.9451 39.8552 25.987C39.8372 26.0288 39.8295 26.0745 39.833 26.1199L39.8611 26.4927L39.5479 26.2884C39.5097 26.2635 39.4661 26.2482 39.4207 26.244C39.3753 26.2397 39.3295 26.2465 39.2873 26.2638L38.9416 26.406L39.0391 26.045C39.051 26.001 39.052 25.9548 39.042 25.9103C39.0321 25.8658 39.0115 25.8243 38.9819 25.7896L38.7399 25.5046L39.1133 25.4859C39.1589 25.4836 39.2032 25.4703 39.2424 25.4471C39.2817 25.4239 39.3147 25.3915 39.3387 25.3527L39.5348 25.0344L39.6681 25.3838C39.6843 25.4263 39.7107 25.4644 39.7449 25.4945C39.7791 25.5246 39.8201 25.546 39.8644 25.5568L40.2277 25.6451L39.9368 25.8797Z" fill="black"/>
<path d="M36.7781 20.6608L36.5705 21.429C36.5568 21.4797 36.5575 21.5332 36.5726 21.5835C36.5878 21.6337 36.6166 21.6787 36.656 21.7135C36.6954 21.7482 36.7437 21.7712 36.7954 21.7798C36.8472 21.7885 36.9004 21.7826 36.9489 21.7626L37.6848 21.46L38.3515 21.895C38.3954 21.9236 38.4465 21.9394 38.499 21.9406C38.5514 21.9417 38.6032 21.9282 38.6484 21.9015C38.6935 21.8747 38.7303 21.8359 38.7546 21.7894C38.7788 21.7428 38.7895 21.6904 38.7856 21.6381L38.7253 20.8445L39.3448 20.3449C39.3857 20.312 39.4165 20.2683 39.4338 20.2187C39.4511 20.1692 39.4542 20.1158 39.4427 20.0646C39.4313 20.0134 39.4057 19.9664 39.369 19.929C39.3322 19.8915 39.2857 19.8651 39.2348 19.8527L38.4613 19.6648L38.1777 18.9212C38.159 18.8721 38.127 18.8293 38.0852 18.7975C38.0434 18.7658 37.9936 18.7463 37.9413 18.7414C37.8891 18.7365 37.8365 18.7463 37.7895 18.7697C37.7425 18.7931 37.7031 18.8291 37.6755 18.8738L37.2579 19.5513L36.463 19.5912C36.4105 19.5938 36.3599 19.6111 36.3168 19.641C36.2737 19.6709 36.2398 19.7123 36.2189 19.7604C36.1981 19.8086 36.1911 19.8616 36.1989 19.9135C36.2066 19.9654 36.2287 20.0141 36.2627 20.0541L36.7781 20.6608ZM37.4339 20.1056C37.4795 20.1033 37.5238 20.09 37.563 20.0667C37.6023 20.0435 37.6353 20.0111 37.6592 19.9723L37.8554 19.6541L37.9886 20.0034C38.0049 20.046 38.0313 20.084 38.0655 20.1141C38.0997 20.1443 38.1407 20.1657 38.185 20.1764L38.5483 20.2647L38.2573 20.4994C38.2218 20.528 38.1938 20.5648 38.1757 20.6067C38.1576 20.6485 38.1499 20.6941 38.1534 20.7396L38.1815 21.1124L37.8683 20.9081C37.8301 20.8832 37.7865 20.868 37.7411 20.8637C37.6957 20.8594 37.6499 20.8662 37.6077 20.8835L37.262 21.0257L37.3595 20.6647C37.3714 20.6207 37.3724 20.5745 37.3625 20.5299C37.3525 20.4854 37.3319 20.444 37.3023 20.4093L37.0603 20.1243L37.4339 20.1056Z" fill="black"/>
<path d="M31.6756 29.1485C31.0407 29.5481 30.7305 30.0323 30.7176 30.0528C30.6776 30.1158 30.6643 30.1921 30.6806 30.2649C30.6969 30.3376 30.7415 30.401 30.8045 30.4409C30.8674 30.4809 30.9437 30.4942 31.0165 30.4779C31.0893 30.4616 31.1526 30.417 31.1926 30.3541C31.2348 30.2884 32.2524 28.7502 34.4673 29.2981C34.5394 29.3152 34.6154 29.3032 34.6787 29.2646C34.742 29.226 34.7875 29.164 34.8053 29.092C34.8231 29.0201 34.8118 28.944 34.7738 28.8803C34.7358 28.8167 34.6742 28.7706 34.6024 28.7521C33.2397 28.4149 32.2586 28.7815 31.6756 29.1485Z" fill="black"/>
<path d="M37.0126 26.17C37.0815 26.1986 37.1589 26.1986 37.2278 26.1701C37.2968 26.1416 37.3516 26.0869 37.3801 26.018C37.4087 25.9491 37.4088 25.8717 37.3803 25.8027C37.3518 25.7338 37.2971 25.679 37.2282 25.6504C35.226 24.8195 33.7707 25.4417 32.9026 26.1102C32.3266 26.5581 31.8498 27.1207 31.5025 27.7623C31.4861 27.7954 31.4763 27.8314 31.4738 27.8682C31.4713 27.9051 31.476 27.9421 31.4878 27.9771C31.4996 28.0121 31.5182 28.0444 31.5424 28.0723C31.5667 28.1001 31.5962 28.1229 31.6293 28.1393C31.6624 28.1557 31.6984 28.1655 31.7352 28.168C31.7721 28.1705 31.8091 28.1658 31.8441 28.154C31.8791 28.1422 31.9114 28.1237 31.9393 28.0994C31.9671 28.0751 31.9899 28.0456 32.0063 28.0125C32.3162 27.4478 32.7379 26.9522 33.2457 26.5559C34.3373 25.7156 35.6047 25.5857 37.0126 26.17Z" fill="black"/>
<path d="M33.852 24.0864C33.8291 24.1574 33.8353 24.2346 33.8692 24.301C33.9032 24.3674 33.9621 24.4176 34.0331 24.4406C34.4203 24.5547 34.8218 24.6127 35.2255 24.6129C35.6958 24.6129 36.239 24.528 36.7262 24.2393C37.3637 23.8615 37.7724 23.218 37.9418 22.3268C37.9489 22.2904 37.9487 22.253 37.9412 22.2168C37.9338 22.1805 37.9193 22.1461 37.8985 22.1154C37.8777 22.0848 37.8511 22.0585 37.8202 22.0382C37.7892 22.0179 37.7546 22.0039 37.7182 21.9969C37.6818 21.99 37.6445 21.9904 37.6082 21.9979C37.572 22.0055 37.5376 22.0202 37.507 22.041C37.4765 22.0619 37.4503 22.0886 37.4301 22.1197C37.4099 22.1507 37.396 22.1854 37.3892 22.2218C37.2515 22.9465 36.9327 23.4621 36.4418 23.7541C35.508 24.3097 34.2262 23.9119 34.2059 23.9055C34.135 23.8826 34.0579 23.8888 33.9915 23.9227C33.9252 23.9567 33.875 24.0155 33.852 24.0864Z" fill="black"/>
<path d="M30.1344 31.3534C30.2346 31.3534 30.3325 31.3237 30.4158 31.2681C30.4991 31.2124 30.5641 31.1333 30.6024 31.0408C30.6408 30.9482 30.6508 30.8464 30.6313 30.7481C30.6117 30.6498 30.5635 30.5596 30.4926 30.4887C30.4218 30.4179 30.3316 30.3696 30.2333 30.3501C30.135 30.3306 30.0332 30.3406 29.9406 30.3789C29.8481 30.4173 29.769 30.4822 29.7133 30.5655C29.6576 30.6488 29.6279 30.7467 29.6279 30.8469C29.6281 30.9812 29.6815 31.1099 29.7765 31.2049C29.8714 31.2998 30.0001 31.3533 30.1344 31.3534ZM30.1344 30.7909C30.1455 30.7909 30.1563 30.7942 30.1656 30.8003C30.1748 30.8065 30.182 30.8152 30.1862 30.8255C30.1904 30.8357 30.1916 30.847 30.1894 30.8579C30.1872 30.8687 30.1819 30.8787 30.1741 30.8865C30.1662 30.8944 30.1562 30.8997 30.1454 30.9019C30.1345 30.904 30.1232 30.9029 30.113 30.8987C30.1028 30.8944 30.094 30.8873 30.0879 30.878C30.0817 30.8688 30.0784 30.858 30.0784 30.8469C30.0785 30.8321 30.0844 30.8179 30.0949 30.8074C30.1054 30.7969 30.1196 30.791 30.1344 30.7909Z" fill="black"/>
<path d="M34.1198 22.1659C34.22 22.1659 34.3179 22.1362 34.4012 22.0806C34.4845 22.0249 34.5494 21.9458 34.5878 21.8532C34.6261 21.7607 34.6362 21.6588 34.6166 21.5606C34.5971 21.4623 34.5488 21.3721 34.478 21.3012C34.4071 21.2304 34.3169 21.1821 34.2186 21.1626C34.1204 21.1431 34.0185 21.1531 33.926 21.1914C33.8334 21.2298 33.7543 21.2947 33.6986 21.378C33.643 21.4613 33.6133 21.5592 33.6133 21.6594C33.6134 21.7937 33.6668 21.9224 33.7618 22.0174C33.8568 22.1124 33.9855 22.1658 34.1198 22.1659ZM34.1198 21.6034C34.1309 21.6034 34.1417 21.6067 34.1509 21.6129C34.1602 21.619 34.1673 21.6278 34.1716 21.638C34.1758 21.6483 34.1769 21.6595 34.1747 21.6704C34.1726 21.6813 34.1672 21.6912 34.1594 21.6991C34.1516 21.7069 34.1416 21.7122 34.1307 21.7144C34.1198 21.7165 34.1086 21.7154 34.0983 21.7112C34.0881 21.7069 34.0794 21.6997 34.0732 21.6905C34.0671 21.6813 34.0638 21.6705 34.0638 21.6594C34.0639 21.6446 34.0698 21.6304 34.0803 21.6199C34.0908 21.6094 34.105 21.6035 34.1198 21.6034Z" fill="black"/>
<path d="M41.259 21.7797C41.1588 21.7797 41.0609 21.8094 40.9776 21.865C40.8943 21.9207 40.8293 21.9998 40.791 22.0924C40.7527 22.1849 40.7426 22.2868 40.7622 22.385C40.7817 22.4833 40.83 22.5735 40.9008 22.6444C40.9717 22.7152 41.0619 22.7635 41.1602 22.783C41.2584 22.8025 41.3603 22.7925 41.4528 22.7542C41.5454 22.7158 41.6245 22.6509 41.6802 22.5676C41.7358 22.4843 41.7655 22.3863 41.7655 22.2861C41.7654 22.1519 41.7119 22.0231 41.617 21.9282C41.522 21.8332 41.3933 21.7798 41.259 21.7797ZM41.259 22.3422C41.2479 22.3422 41.2371 22.3389 41.2279 22.3327C41.2186 22.3266 41.2115 22.3178 41.2072 22.3076C41.203 22.2973 41.2019 22.2861 41.204 22.2752C41.2062 22.2644 41.2115 22.2544 41.2194 22.2465C41.2272 22.2387 41.2372 22.2334 41.248 22.2312C41.2589 22.229 41.2702 22.2302 41.2804 22.2344C41.2906 22.2386 41.2994 22.2458 41.3055 22.255C41.3117 22.2642 41.315 22.2751 41.315 22.2861C41.3149 22.301 41.309 22.3152 41.2985 22.3257C41.288 22.3362 41.2738 22.3421 41.259 22.3422Z" fill="black"/>
<path d="M29.9271 28.5013C29.9271 28.4011 29.8974 28.3031 29.8417 28.2198C29.7861 28.1365 29.7069 28.0716 29.6144 28.0333C29.5218 27.9949 29.4199 27.9849 29.3217 28.0045C29.2234 28.024 29.1332 28.0723 29.0623 28.1432C28.9915 28.214 28.9433 28.3043 28.9238 28.4026C28.9042 28.5009 28.9143 28.6027 28.9527 28.6953C28.9911 28.7878 29.056 28.8669 29.1394 28.9226C29.2227 28.9782 29.3207 29.0078 29.4209 29.0078C29.5551 29.0076 29.6838 28.9541 29.7787 28.8592C29.8736 28.7642 29.927 28.6355 29.9271 28.5013ZM29.4209 28.5575C29.4098 28.5575 29.399 28.5542 29.3898 28.5481C29.3806 28.542 29.3734 28.5332 29.3691 28.523C29.3649 28.5128 29.3637 28.5015 29.3659 28.4907C29.368 28.4798 29.3733 28.4698 29.3811 28.462C29.3889 28.4541 29.3989 28.4488 29.4097 28.4466C29.4206 28.4444 29.4318 28.4455 29.4421 28.4497C29.4523 28.4539 29.4611 28.461 29.4673 28.4702C29.4735 28.4794 29.4768 28.4902 29.4768 28.5013C29.4768 28.5161 29.4708 28.5304 29.4603 28.5409C29.4498 28.5514 29.4355 28.5573 29.4206 28.5573L29.4209 28.5575Z" fill="black"/>
<path d="M40.425 28.8193C40.3248 28.8193 40.2269 28.849 40.1436 28.9047C40.0603 28.9603 39.9954 29.0394 39.957 29.132C39.9187 29.2246 39.9086 29.3264 39.9282 29.4247C39.9477 29.5229 39.996 29.6132 40.0668 29.684C40.1377 29.7548 40.2279 29.8031 40.3262 29.8226C40.4244 29.8422 40.5263 29.8321 40.6188 29.7938C40.7114 29.7555 40.7905 29.6905 40.8462 29.6073C40.9018 29.524 40.9315 29.426 40.9315 29.3258C40.9314 29.1915 40.878 29.0628 40.783 28.9678C40.688 28.8729 40.5593 28.8195 40.425 28.8193ZM40.425 29.3818C40.4139 29.3818 40.4031 29.3785 40.3939 29.3724C40.3847 29.3662 40.3775 29.3575 40.3733 29.3472C40.3691 29.337 40.368 29.3257 40.3701 29.3149C40.3723 29.304 40.3776 29.2941 40.3855 29.2862C40.3933 29.2784 40.4033 29.2731 40.4141 29.2709C40.425 29.2688 40.4362 29.2699 40.4465 29.2741C40.4567 29.2784 40.4654 29.2855 40.4716 29.2947C40.4777 29.304 40.481 29.3148 40.481 29.3258C40.4809 29.3407 40.475 29.3549 40.4645 29.3653C40.454 29.3758 40.4398 29.3817 40.425 29.3818Z" fill="black"/>
</g>
<defs>
<clipPath id="clip0_13_3399">
<rect width="24" height="24" fill="white" transform="translate(18 18)"/>
</clipPath>
</defs>
</svg>
