<svg width="60" height="60" viewBox="0 0 60 60" fill="none" xmlns="http://www.w3.org/2000/svg">
<circle cx="30" cy="30" r="30" fill="#121212" fill-opacity="0.1"/>
<path d="M38.52 27.1604C39.2025 26.4919 39.6 25.5787 39.6 24.6C39.6 22.615 37.9852 21 36 21C35.3441 21 34.6988 21.1803 34.1332 21.5215C33.9442 21.6358 33.8832 21.8814 33.9973 22.0707C34.1113 22.26 34.3574 22.3203 34.5465 22.2067C34.9875 21.9406 35.4899 21.8 36 21.8C37.5437 21.8 38.8 23.0561 38.8 24.6C38.8 25.5508 38.3238 26.4271 37.5246 26.9455C36.8535 27.3857 36.0027 27.5127 35.2258 27.2914C35.0156 27.2308 34.7922 27.3535 34.7312 27.566C34.6707 27.7785 34.7937 27.9997 35.0062 28.0605C35.3297 28.1531 35.664 28.2 36 28.2C36.629 28.2 37.2369 28.0284 37.7767 27.7185C39.8301 28.4626 41.2 30.4013 41.2 32.6V34.6H37.5525C37.2692 31.9283 35.5884 29.5904 33.1367 28.4802C33.9169 27.6859 34.4 26.5988 34.4 25.4C34.4 22.9738 32.4262 21 30 21C27.5738 21 25.6 22.9738 25.6 25.4C25.6 26.5991 26.0834 27.6866 26.864 28.481C26.0389 28.8559 25.2736 29.3803 24.6246 30.0256C23.3804 31.2734 22.6233 32.8749 22.4436 34.6001H18.8V32.6001C18.8 31.2149 19.341 29.9089 20.3219 28.9239C20.8619 28.3874 21.5192 27.978 22.227 27.7208C22.7669 28.0294 23.373 28.2 24 28.2C24.336 28.2 24.6703 28.1531 24.9937 28.0605C25.2062 27.9998 25.3293 27.7785 25.2688 27.566C25.2078 27.3535 24.9844 27.231 24.7742 27.2914C23.9977 27.5131 23.1473 27.3863 22.4735 26.9445C21.6762 26.4271 21.2 25.5508 21.2 24.6C21.2 23.0561 22.4563 21.8 24 21.8C24.5101 21.8 25.0125 21.9406 25.4535 22.2067C25.6433 22.3203 25.8883 22.2594 26.0027 22.0707C26.1168 21.8815 26.0558 21.6358 25.8668 21.5215C25.3012 21.1803 24.6559 21 24 21C22.0148 21 20.4 22.615 20.4 24.6C20.4 25.578 20.7968 26.4904 21.4774 27.1583C20.843 27.4532 20.2571 27.8603 19.7563 28.3578C18.6238 29.4953 18 31.0018 18 32.6V35C18 35.2209 18.1789 35.4 18.4 35.4H22.4V38.6C22.4 38.8209 22.5789 39 22.8 39H37.2C37.4211 39 37.5999 38.8209 37.5999 38.6V35.4H41.5999C41.821 35.4 41.9999 35.2209 41.9999 35V32.6C42 30.2349 40.6255 28.131 38.52 27.1604ZM26.4 25.4C26.4 23.415 28.0148 21.8 30 21.8C31.9852 21.8 33.6 23.415 33.6 25.4C33.6 27.385 31.9852 29 30 29C28.0148 29 26.4 27.3849 26.4 25.4ZM36.8 38.2H23.2V35.4C23.2 33.5863 23.907 31.8783 25.1898 30.5916C25.8656 29.9194 26.6849 29.398 27.5633 29.0607C28.2615 29.527 29.0992 29.8 30 29.8C30.9022 29.8 31.7415 29.5262 32.4403 29.0585C35.0549 30.0631 36.8 32.5838 36.8 35.4V38.2Z" fill="#121212"/>
</svg>
