<svg width="60" height="60" viewBox="0 0 60 60" fill="none" xmlns="http://www.w3.org/2000/svg">
<circle cx="30" cy="30" r="30" fill="#121212" fill-opacity="0.1"/>
<path d="M25.2561 27.7988H24.503C24.417 27.7988 24.3345 27.7646 24.2737 27.7038C24.2129 27.643 24.1787 27.5605 24.1787 27.4745C24.1787 27.3885 24.2129 27.306 24.2737 27.2452C24.3345 27.1843 24.417 27.1502 24.503 27.1502H25.2561C25.5425 27.1491 25.8239 27.0749 26.0736 26.9347C26.3234 26.7944 26.5332 26.5928 26.6831 26.3488L27.5458 24.9405C28.6894 23.0679 29.1772 21.4411 29.1772 19.5016C29.1771 19.2756 29.2668 19.0588 29.4265 18.8988C29.5862 18.7389 29.8028 18.6489 30.0289 18.6487H30.2436C31.1267 18.6497 31.9734 19.001 32.5978 19.6255C33.2222 20.25 33.5734 21.0967 33.5744 21.9798C33.5742 23.6376 33.2055 25.2747 32.495 26.7727L32.2972 27.2248C32.2611 27.3009 32.1968 27.3601 32.1178 27.3896C32.0389 27.4192 31.9516 27.4169 31.8743 27.3831C31.7971 27.3494 31.736 27.2869 31.704 27.2089C31.672 27.1309 31.6717 27.0435 31.703 26.9653L31.9009 26.5132C32.5782 25.0982 32.9285 23.5489 32.9257 21.9801C32.9251 21.2689 32.6424 20.5869 32.1395 20.084C31.6367 19.581 30.9548 19.2981 30.2436 19.2973H30.0289C29.9751 19.2974 29.9236 19.3188 29.8855 19.3567C29.8475 19.3947 29.826 19.4462 29.8258 19.5C29.8258 21.54 29.2933 23.3215 28.0995 25.2769L27.2384 26.6867C27.0301 27.0256 26.7386 27.3056 26.3917 27.5002C26.0448 27.6948 25.6539 27.7976 25.2561 27.7988Z" fill="black"/>
<path d="M34.9096 30.6623C34.8236 30.6623 34.7411 30.6281 34.6803 30.5673C34.6195 30.5065 34.5853 30.424 34.5853 30.338C34.5853 30.2519 34.6195 30.1694 34.6803 30.1086C34.7411 30.0478 34.8236 30.0136 34.9096 30.0136H38.0951C38.4392 30.0136 38.7692 29.8769 39.0125 29.6337C39.2558 29.3904 39.3924 29.0604 39.3924 28.7163C39.3924 28.3723 39.2558 28.0423 39.0125 27.799C38.7692 27.5557 38.4392 27.419 38.0951 27.419H32.0001C31.9141 27.419 31.8316 27.3849 31.7708 27.324C31.71 27.2632 31.6758 27.1807 31.6758 27.0947C31.6758 27.0087 31.71 26.9262 31.7708 26.8654C31.8316 26.8046 31.9141 26.7704 32.0001 26.7704H38.0938C38.6099 26.7704 39.1049 26.9754 39.4698 27.3403C39.8348 27.7053 40.0398 28.2002 40.0398 28.7163C40.0398 29.2324 39.8348 29.7274 39.4698 30.0923C39.1049 30.4573 38.6099 30.6623 38.0938 30.6623H34.9083H34.9096Z" fill="black"/>
<path d="M38.7424 33.9058H34.1837C34.0977 33.9058 34.0152 33.8717 33.9544 33.8108C33.8935 33.75 33.8594 33.6675 33.8594 33.5815C33.8594 33.4955 33.8935 33.413 33.9544 33.3522C34.0152 33.2914 34.0977 33.2572 34.1837 33.2572H38.7424C39.0865 33.2572 39.4164 33.1205 39.6597 32.8772C39.903 32.6339 40.0397 32.304 40.0397 31.9599C40.0397 31.6158 39.903 31.2859 39.6597 31.0426C39.4164 30.7993 39.0865 30.6626 38.7424 30.6626H34.9095C34.8235 30.6626 34.741 30.6284 34.6802 30.5676C34.6194 30.5068 34.5852 30.4243 34.5852 30.3383C34.5852 30.2523 34.6194 30.1698 34.6802 30.1089C34.741 30.0481 34.8235 30.0139 34.9095 30.0139H38.7424C39.2585 30.0139 39.7535 30.219 40.1184 30.5839C40.4833 30.9488 40.6883 31.4438 40.6883 31.9599C40.6883 32.476 40.4833 32.9709 40.1184 33.3359C39.7535 33.7008 39.2585 33.9058 38.7424 33.9058Z" fill="black"/>
<path d="M38.094 37.1494H33.4562C33.3701 37.1494 33.2877 37.1152 33.2268 37.0544C33.166 36.9936 33.1318 36.9111 33.1318 36.8251C33.1318 36.7391 33.166 36.6566 33.2268 36.5957C33.2877 36.5349 33.3701 36.5008 33.4562 36.5008H38.094C38.4381 36.5008 38.768 36.3641 39.0113 36.1208C39.2546 35.8775 39.3913 35.5475 39.3913 35.2035C39.3913 34.8594 39.2546 34.5294 39.0113 34.2861C38.768 34.0428 38.4381 33.9062 38.094 33.9062H34.1839C34.0979 33.9062 34.0154 33.872 33.9546 33.8112C33.8938 33.7503 33.8596 33.6678 33.8596 33.5818C33.8596 33.4958 33.8938 33.4133 33.9546 33.3525C34.0154 33.2917 34.0979 33.2575 34.1839 33.2575H38.094C38.6101 33.2575 39.1051 33.4625 39.47 33.8275C39.8349 34.1924 40.0399 34.6874 40.0399 35.2035C40.0399 35.7196 39.8349 36.2145 39.47 36.5794C39.1051 36.9444 38.6101 37.1494 38.094 37.1494Z" fill="black"/>
<path d="M36.7966 40.3927H27.7411C26.5134 40.3948 25.3157 40.0131 24.3156 39.301C24.2795 39.2769 24.2485 39.2459 24.2246 39.2097C24.2007 39.1735 24.1843 39.1328 24.1764 39.0902C24.1684 39.0475 24.1691 39.0037 24.1785 38.9613C24.1878 38.9189 24.2055 38.8788 24.2306 38.8434C24.2557 38.808 24.2877 38.778 24.3246 38.7552C24.3615 38.7323 24.4026 38.7171 24.4455 38.7105C24.4884 38.7038 24.5321 38.7058 24.5742 38.7164C24.6163 38.727 24.6559 38.7459 24.6905 38.772C25.5811 39.4064 26.6477 39.7466 27.7411 39.745H36.7966C37.1406 39.745 37.4706 39.6083 37.7139 39.365C37.9572 39.1217 38.0939 38.7917 38.0939 38.4477C38.0939 38.1036 37.9572 37.7736 37.7139 37.5304C37.4706 37.2871 37.1406 37.1504 36.7966 37.1504H33.456C33.37 37.1504 33.2875 37.1162 33.2267 37.0554C33.1659 36.9946 33.1317 36.9121 33.1317 36.8261C33.1317 36.74 33.1659 36.6576 33.2267 36.5967C33.2875 36.5359 33.37 36.5017 33.456 36.5017H36.7966C37.3127 36.5017 37.8076 36.7068 38.1726 37.0717C38.5375 37.4366 38.7425 37.9316 38.7425 38.4477C38.7425 38.9638 38.5375 39.4587 38.1726 39.8237C37.8076 40.1886 37.3127 40.3936 36.7966 40.3936V40.3927Z" fill="black"/>
<path d="M23.6361 41.3513H20.3633C20.0845 41.351 19.8171 41.2401 19.62 41.0429C19.4228 40.8457 19.3119 40.5784 19.3115 40.2996V26.4448C19.3123 26.1662 19.4234 25.8993 19.6205 25.7025C19.8177 25.5056 20.0847 25.3949 20.3633 25.3946H23.6361C23.9149 25.3949 24.1822 25.5059 24.3794 25.703C24.5766 25.9002 24.6875 26.1675 24.6878 26.4464V40.2996C24.6875 40.5784 24.5766 40.8457 24.3794 41.0429C24.1822 41.2401 23.9149 41.351 23.6361 41.3513ZM20.3633 26.0432C20.2564 26.0434 20.154 26.0859 20.0784 26.1615C20.0029 26.2371 19.9603 26.3395 19.9602 26.4464V40.2996C19.9603 40.4064 20.0029 40.5089 20.0784 40.5844C20.154 40.66 20.2564 40.7025 20.3633 40.7027H23.6361C23.7429 40.7025 23.8454 40.66 23.9209 40.5844C23.9965 40.5089 24.039 40.4064 24.0392 40.2996V26.4448C24.0386 26.3382 23.9959 26.2361 23.9204 26.1609C23.8448 26.0857 23.7426 26.0434 23.6361 26.0432H20.3633Z" fill="black"/>
</svg>
