<svg width="60" height="60" viewBox="0 0 60 60" fill="none" xmlns="http://www.w3.org/2000/svg">
<circle cx="30" cy="30" r="30" fill="#121212" fill-opacity="0.1"/>
<path d="M24.2158 29.868C24.2164 30.2892 24.3837 30.6929 24.6812 30.9911C24.9786 31.2892 25.382 31.4574 25.8032 31.459C25.6918 31.6413 25.632 31.8504 25.6301 32.064V32.28C25.6295 32.5468 25.7202 32.8058 25.8872 33.0138C26.0543 33.2218 26.2875 33.3664 26.5481 33.4234L28.3438 38.9206C28.4111 39.1241 28.5411 39.3011 28.7152 39.4261C28.8893 39.5511 29.0986 39.6178 29.3129 39.6166H30.6848C30.8991 39.6178 31.1084 39.5511 31.2825 39.4261C31.4566 39.3011 31.5866 39.1241 31.6539 38.9206L33.4508 33.4224C33.7114 33.3656 33.9448 33.2213 34.112 33.0135C34.2792 32.8056 34.3701 32.5468 34.3697 32.28V32.064C34.3681 31.8502 34.3078 31.6409 34.1955 31.459C34.6168 31.4578 35.0205 31.2897 35.3182 30.9915C35.6159 30.6933 35.7833 30.2893 35.7838 29.868V29.7744C35.7834 29.5084 35.7034 29.2485 35.5542 29.0283C35.4049 28.8081 35.1932 28.6376 34.9462 28.5386C35.1514 28.2233 35.2727 27.8608 35.2986 27.4855C35.3245 27.1102 35.2542 26.7345 35.0943 26.394C34.873 25.9222 34.491 25.5445 34.0167 25.3286C34.076 25.0537 34.1059 24.7733 34.106 24.492C34.106 23.4029 33.6733 22.3584 32.9032 21.5883C32.1331 20.8182 31.0887 20.3856 29.9996 20.3856C28.9105 20.3856 27.866 20.8182 27.0959 21.5883C26.3258 22.3584 25.8932 23.4029 25.8932 24.492C25.8932 24.7736 25.9232 25.0544 25.9827 25.3296C25.6945 25.462 25.4381 25.6549 25.2311 25.8952C25.024 26.1356 24.8711 26.4176 24.7828 26.7223C24.6944 27.0269 24.6727 27.347 24.7191 27.6608C24.7654 27.9746 24.8788 28.2747 25.0515 28.5408C24.8053 28.6399 24.5942 28.8103 24.4454 29.03C24.2965 29.2498 24.2166 29.509 24.2158 29.7744V29.868ZM31.1072 38.742C31.0784 38.8305 31.0218 38.9075 30.9459 38.9614C30.8701 39.0153 30.7788 39.0434 30.6857 39.0415H29.3139C29.221 39.0425 29.1301 39.0141 29.0544 38.9602C28.9787 38.9063 28.922 38.8299 28.8925 38.7418L27.1659 33.4594H32.8337L31.1072 38.742ZM33.7937 32.28C33.7947 32.4345 33.7355 32.5832 33.6287 32.6948C33.5219 32.8065 33.3759 32.8722 33.2216 32.8781C33.218 32.8781 33.2144 32.8793 33.2108 32.8795H33.2053C33.1948 32.8802 33.1844 32.8815 33.1741 32.8834H26.8256C26.8153 32.8816 26.805 32.8805 26.7946 32.88H26.7889C26.7853 32.88 26.7817 32.88 26.7781 32.8786C26.6236 32.8726 26.4776 32.8069 26.3708 32.6952C26.264 32.5834 26.2049 32.4345 26.2059 32.28V32.064C26.2056 31.9815 26.2223 31.8998 26.255 31.824C26.2877 31.7482 26.3357 31.68 26.396 31.6236C26.5084 31.5188 26.6563 31.4604 26.81 31.4599H33.1897C33.2656 31.4593 33.341 31.4736 33.4114 31.5022C33.4818 31.5308 33.5458 31.573 33.5998 31.6265C33.661 31.6817 33.7099 31.7492 33.7433 31.8246C33.7766 31.9 33.7936 31.9816 33.7933 32.064L33.7937 32.28ZM30.0022 20.9592C30.9382 20.9609 31.8353 21.3338 32.4967 21.9961C33.1581 22.6584 33.5298 23.556 33.5302 24.492C33.5302 24.7142 33.5085 24.9359 33.4654 25.1539C33.4532 25.1518 33.4397 25.151 33.4273 25.1494C33.4112 25.147 33.3944 25.1455 33.3778 25.1436C33.2823 25.1318 33.1861 25.1257 33.0898 25.1254C33.0488 25.1246 33.0077 25.1275 32.9672 25.134C32.5606 25.1495 32.1673 25.2835 31.8358 25.5194C31.5929 25.6813 31.3857 25.8912 31.2269 26.1362C30.8628 25.8949 30.4355 25.7661 29.9986 25.7661C29.5617 25.7661 29.1345 25.8949 28.7703 26.1362C28.5663 25.8292 28.2904 25.5766 27.9666 25.4005C27.6428 25.2243 27.2808 25.1299 26.9122 25.1254C26.8174 25.1257 26.7227 25.1317 26.6285 25.1431C26.6108 25.1453 26.5925 25.147 26.5753 25.1496C26.558 25.1522 26.5469 25.1522 26.5333 25.1546C26.49 24.9364 26.4682 24.7145 26.4682 24.492C26.4693 23.5552 26.842 22.657 27.5046 21.9947C28.1671 21.3324 29.0654 20.96 30.0022 20.9592ZM26.4104 25.7791C26.4202 25.776 26.4291 25.7705 26.4387 25.7664L26.3571 25.4959L26.4699 25.7522L26.4723 25.7575C26.7046 25.6956 26.9476 25.6851 27.1843 25.7268C27.4211 25.7686 27.6459 25.8615 27.8429 25.9992C28.0971 26.1679 28.2963 26.4073 28.4158 26.688C28.4341 26.7305 28.4624 26.768 28.4982 26.7972C28.5341 26.8265 28.5764 26.8467 28.6217 26.8561C28.667 26.8655 28.7139 26.8639 28.7585 26.8513C28.803 26.8388 28.8439 26.8157 28.8776 26.784C29.1824 26.4995 29.5838 26.3412 30.0008 26.3412C30.4178 26.3412 30.8192 26.4995 31.124 26.784C31.1478 26.8057 31.1751 26.823 31.2049 26.8354C31.2118 26.8385 31.2188 26.8416 31.226 26.8442C31.2552 26.8548 31.2859 26.8606 31.3169 26.8615H31.3208C31.3771 26.8614 31.4321 26.8447 31.479 26.8136C31.5259 26.7825 31.5627 26.7383 31.5848 26.6866C31.7056 26.4026 31.9074 26.1606 32.1649 25.9906C32.4131 25.8132 32.7088 25.7142 33.0137 25.7062C33.032 25.7056 33.0501 25.7034 33.068 25.6994H33.092C33.2378 25.6971 33.3833 25.7155 33.524 25.7542L33.5518 25.7618C33.5643 25.7678 33.5771 25.7729 33.5902 25.7772C33.8048 25.8443 34.0031 25.9553 34.1725 26.1031C34.3419 26.251 34.4787 26.4324 34.5742 26.6359C34.6763 26.8538 34.7292 27.0914 34.7293 27.3319C34.7312 27.671 34.6268 28.0022 34.4307 28.2789C34.2347 28.5555 33.9569 28.7638 33.6363 28.8744C33.4638 28.9448 33.2787 28.9793 33.0925 28.9759C32.6953 28.9769 32.3118 28.8311 32.0156 28.5665C31.9978 28.5491 31.9788 28.533 31.9587 28.5185C31.8954 28.4725 31.8166 28.4529 31.7391 28.464C31.6936 28.4707 31.6502 28.4875 31.6121 28.5133C31.574 28.539 31.5422 28.5731 31.519 28.6128C31.5133 28.6224 31.5073 28.6334 31.5015 28.6418C31.4883 28.6583 31.4769 28.6762 31.4677 28.6951C31.3568 28.9242 31.1935 29.1239 30.9912 29.2782C30.7888 29.4324 30.5529 29.5369 30.3027 29.5831C30.2936 29.5846 30.2847 29.5866 30.2758 29.5891C30.1866 29.6093 30.095 29.6174 30.0037 29.6131C29.6954 29.6141 29.3931 29.5278 29.1318 29.3641C28.8705 29.2004 28.661 28.966 28.5274 28.6882C28.5194 28.6713 28.5097 28.6552 28.4986 28.6402L28.4965 28.6356C28.4885 28.62 28.4804 28.6044 28.4725 28.5902C28.451 28.5546 28.4221 28.524 28.3876 28.5006C28.3532 28.4772 28.3141 28.4615 28.2731 28.4547C28.232 28.4478 28.1899 28.45 28.1498 28.4609C28.1096 28.4719 28.0723 28.4915 28.0405 28.5182C28.0217 28.5321 28.004 28.5474 27.9877 28.5641C27.6942 28.8319 27.3107 28.9795 26.9134 28.9776C26.5223 28.9787 26.1438 28.8398 25.8462 28.5862C25.5485 28.3325 25.3515 27.9807 25.2906 27.5944C25.2297 27.2081 25.3091 26.8127 25.5143 26.4798C25.7194 26.1469 26.037 25.8984 26.4094 25.7791H26.4104ZM24.7918 29.7744C24.7911 29.587 24.8606 29.4061 24.9867 29.2673C25.1127 29.1285 25.2861 29.042 25.4727 29.0246C25.4847 29.0347 25.4967 29.0436 25.5099 29.0537C25.5325 29.0719 25.5553 29.0897 25.5785 29.1072C25.6105 29.1309 25.6425 29.1538 25.6745 29.1761C25.6985 29.1922 25.7225 29.2078 25.7465 29.2241C25.7799 29.2447 25.814 29.2642 25.8483 29.2829C25.8723 29.2968 25.8987 29.3105 25.9246 29.3232C25.9597 29.3407 25.9966 29.3566 26.0317 29.3712C26.0581 29.3825 26.084 29.394 26.1106 29.4043C26.1478 29.4187 26.1855 29.431 26.2234 29.4434C26.2501 29.4521 26.2765 29.4612 26.3036 29.4689C26.3432 29.4802 26.3837 29.489 26.4236 29.4982C26.4495 29.5039 26.4752 29.5106 26.5016 29.5154C26.5465 29.5238 26.5918 29.5294 26.6374 29.5351C26.66 29.5378 26.6821 29.5418 26.7049 29.544C26.7733 29.5502 26.8421 29.5538 26.9117 29.5538C27.349 29.5542 27.7763 29.4229 28.1379 29.177C28.3379 29.4897 28.6137 29.7467 28.9396 29.9241C29.2656 30.1016 29.6311 30.1937 30.0022 30.192C30.1417 30.196 30.281 30.1816 30.4167 30.149C30.7103 30.0931 30.9895 29.9779 31.2371 29.8105C31.4847 29.643 31.6955 29.4268 31.8567 29.1751C32.2207 29.4225 32.6507 29.5545 33.0908 29.5538C33.3486 29.558 33.6046 29.51 33.8434 29.4127C33.9109 29.3887 33.9764 29.3616 34.0407 29.3316C34.0623 29.3218 34.0827 29.31 34.1041 29.2992C34.1463 29.2778 34.1883 29.2558 34.2293 29.2315C34.2533 29.2174 34.2757 29.2022 34.2985 29.1874C34.3359 29.1634 34.3726 29.1394 34.4084 29.1118C34.4309 29.0952 34.453 29.0779 34.4749 29.0602C34.4912 29.0472 34.5085 29.0362 34.5245 29.022C34.7115 29.0402 34.885 29.1274 35.0113 29.2664C35.1376 29.4055 35.2076 29.5866 35.2078 29.7744V29.868C35.2075 30.1372 35.1004 30.3952 34.9101 30.5855C34.7198 30.7758 34.4618 30.8829 34.1926 30.8832H25.807C25.5379 30.8829 25.2798 30.7758 25.0895 30.5855C24.8992 30.3952 24.7921 30.1372 24.7918 29.868V29.7744Z" fill="black"/>
<path d="M26.4707 25.752C26.4608 25.7578 26.4498 25.7614 26.4395 25.7662C26.4504 25.7627 26.4608 25.7579 26.4707 25.752Z" fill="black"/>
</svg>
