<svg width="60" height="60" viewBox="0 0 60 60" fill="none" xmlns="http://www.w3.org/2000/svg">
<circle cx="30" cy="30" r="30" fill="#121212" fill-opacity="0.1"/>
<path d="M36.8879 27.976C37.0919 27.312 37.1999 26.64 37.1999 25.976C37.1999 23.404 35.2279 21.312 32.7999 21.312C31.1479 21.312 29.6319 22.212 28.7999 23.62C27.9679 22.212 26.4519 21.312 24.7999 21.312C22.3719 21.312 20.3999 23.404 20.3999 25.976C20.3999 31.84 28.2759 36.104 28.6119 36.284C28.6719 36.316 28.7359 36.332 28.7999 36.332C28.8639 36.332 28.9279 36.316 28.9879 36.284C28.9999 36.276 29.2879 36.124 29.7439 35.84C31.3439 37.52 33.2719 38.568 33.4119 38.64C33.4719 38.672 33.5359 38.688 33.5999 38.688C33.6639 38.688 33.7279 38.672 33.7879 38.64C34.0239 38.516 39.5999 35.492 39.5999 31.32C39.5999 29.628 38.4199 28.228 36.8879 27.976ZM28.7999 35.472C27.6119 34.792 21.1999 30.884 21.1999 25.976C21.1999 23.844 22.8159 22.112 24.7999 22.112C26.1399 22.112 27.7799 22.908 28.4239 24.692C28.4799 24.852 28.6319 24.956 28.7999 24.956C28.9679 24.956 29.1199 24.852 29.1759 24.692C29.8199 22.908 31.4599 22.112 32.7999 22.112C34.7839 22.112 36.3999 23.844 36.3999 25.976C36.3999 26.632 36.2799 27.296 36.0519 27.956C35.0559 28.06 34.1559 28.612 33.5999 29.444C32.9799 28.516 31.9319 27.932 30.7999 27.932C29.0359 27.932 27.5999 29.452 27.5999 31.32C27.5999 32.796 28.2959 34.124 29.2039 35.232C29.0399 35.332 28.8999 35.416 28.7999 35.472ZM33.5999 37.828C32.6439 37.272 28.3999 34.616 28.3999 31.32C28.3999 29.892 29.4759 28.732 30.7999 28.732C31.6959 28.732 32.7919 29.264 33.2239 30.46C33.2799 30.62 33.4319 30.724 33.5999 30.724C33.7679 30.724 33.9199 30.62 33.9759 30.46C34.4079 29.268 35.5039 28.732 36.3999 28.732C37.7239 28.732 38.7999 29.892 38.7999 31.32C38.7999 34.616 34.5559 37.272 33.5999 37.828Z" fill="black"/>
</svg>
